Source : NGB

Format : AVI
Format/Info : Audio Video Interleave
File size : 701 MiB
Duration : 1h 21mn
Overall bit rate : 1 203 Kbps
Writing library : VirtualDub build 32842/release

Video
ID : 0
Format : MPEG-4 Visual
Format profile : Advanced Simple@L5
Format settings, BVOP : 4
Format settings, QPel : No
Format settings, GMC : No warppoints
Format settings, Matrix : Default (H.263)
Muxing mode : Packed bitstream
Codec ID : XVID
Codec ID/Hint : XviD
Duration : 1h 21mn
Bit rate : 1 065 Kbps
Width : 640 pixels
Height : 352 pixels
Display aspect ratio : 16:9
Frame rate : 23.976 fps
Color space : YUV
Chroma subsampling : 4:2:0
Bit depth : 8 bits
Scan type : Progressive
Compression mode : Lossy
Bits/(Pixel*Frame) : 0.197
Stream size : 621 MiB (89%)
Writing library : XviD 64

Audio
ID : 1
Format : MPEG Audio
Format version : Version 1
Format profile : Layer 3
Codec ID : 55
Codec ID/Hint : MP3
Duration : 1h 21mn
Bit rate mode : Constant
Bit rate : 128 Kbps
Channel(s) : 2 channels
Sampling rate : 44.1 KHz
Compression mode : Lossy
Stream size : 74.6 MiB (11%)
Alignment : Split accross interleaves
Interleave, duration : 42 ms (1.00 video frame)
Interleave, preload duration : 500 ms
Writing library : LAME3.99r
Encoding settings : -m s -V 4 -q 3 -lowpass 17 -b 128


Plot
A comedy about two friends running an unsuccessful adult film studio in the San Fernando Valley. Chaos ensues when they are forced to deal with Russian gangsters, Criminals, and Porn Stars to meet a very important cable deal due by 5 o'clock.
They realize they are one scene short to complete the movie and find themselves having to use their employees to save the day!

 
http://www.shotpix.com/images/91100281581369261973.png 
http://www.shotpix.com/images/77391779910704454212.png 
http://www.shotpix.com/images/41906533846144599252.png